<?xml version="1.0" encoding="utf-8"?>
<!-- Svg Vector Icons : http://www.onlinewebfonts.com/icon -->
<!DOCTYPE svg PUBLIC "-//W3C//DTD SVG 1.1//EN" "http://www.w3.org/Graphics/SVG/1.1/DTD/svg11.dtd">
<svg version="1.1" xmlns="http://www.w3.org/2000/svg" xmlns:xlink="http://www.w3.org/1999/xlink" x="0px" y="0px" viewBox="0 0 256 256" enable-background="new 0 0 256 256" xml:space="preserve">
<metadata> Svg Vector Icons : http://www.onlinewebfonts.com/icon </metadata>
<g><g><path fill="#000000" d="M39.5,16C23.2,16,10,29.2,10,45.5C10,61.8,23.2,75,39.5,75S69,61.8,69,45.5C69,29.2,55.8,16,39.5,16z M133.7,16c-16.3,0-29.5,13.2-29.5,29.5c0,16.3,13.2,29.5,29.5,29.5c16.3,0,29.5-13.2,29.5-29.5C163.2,29.2,150,16,133.7,16z M216.5,74.8c16.3,0,29.5-13.2,29.5-29.5s-13.2-29.5-29.5-29.5C200.2,15.8,187,29,187,45.3C187,61.6,200.2,74.8,216.5,74.8z M39.5,98.6c-16.3,0-29.5,13.2-29.5,29.5c0,16.3,13.2,29.5,29.5,29.5S69,144.4,69,128.1C69,111.8,55.8,98.6,39.5,98.6z M133.7,98.6c-16.3,0-29.5,13.2-29.5,29.5c0,16.3,13.2,29.5,29.5,29.5c16.3,0,29.5-13.2,29.5-29.5C163.2,111.8,150,98.6,133.7,98.6z M216.5,98.4c-16.3,0-29.5,13.2-29.5,29.5c0,16.3,13.2,29.5,29.5,29.5c16.3,0,29.5-13.2,29.5-29.5C246,111.6,232.8,98.4,216.5,98.4z M133.7,181.2c-16.3,0-29.5,13.2-29.5,29.5c0,16.3,13.2,29.5,29.5,29.5c16.3,0,29.5-13.2,29.5-29.5C163.2,194.4,150,181.2,133.7,181.2z"/></g></g>
</svg>