<svg width="24" height="24" viewBox="0 0 24 24" fill="none" xmlns="http://www.w3.org/2000/svg">
<path fill-rule="evenodd" clip-rule="evenodd" d="M7.25006 5C9.32113 5 11.0001 6.67893 11.0001 8.75C11.0001 9.95256 10.434 11.0229 9.55382 11.7091L9.49806 11.75L9.55382 11.7909C10.3851 12.439 10.9362 13.4297 10.9949 14.5508L11.0001 14.75C11.0001 16.7543 9.4277 18.3913 7.44922 18.4948L7.25006 18.5H2.75006C2.37037 18.5 2.05657 18.2178 2.00691 17.8518L2.00006 17.75V11.75V5.75C2.00006 5.3703 2.28221 5.05651 2.64829 5.00685L2.75006 5H7.25006ZM3.50006 12.5V17H7.25006C8.44093 17 9.41571 16.0748 9.49487 14.904L9.50006 14.75C9.50006 13.5591 8.5749 12.5844 7.40411 12.5052L7.25006 12.5H3.50006ZM7.2802 11.0006C7.27021 11.0002 7.26016 11 7.25006 11H3.50006V6.5H7.25006L7.40411 6.50519C8.5749 6.58436 9.50006 7.55914 9.50006 8.75C9.50006 9.94086 8.5749 10.9156 7.40411 10.9948L7.2802 11.0006ZM21.5001 12.75C21.5001 10.4028 19.5973 8.5 17.2501 8.5C14.9029 8.5 13.0001 10.4028 13.0001 12.75V14.75L13.0071 14.8524L13.0406 15.0582C13.3728 16.8271 14.7896 18.2046 16.5844 18.4749C18.4482 18.7556 20.2742 17.7752 21.0699 16.0667C21.2448 15.6912 21.0822 15.245 20.7067 15.0701C20.3312 14.8952 19.8851 15.0579 19.7102 15.4333C19.1953 16.5389 18.0137 17.1732 16.8078 16.9916L16.6289 16.9587C15.5684 16.7268 14.7423 15.8902 14.5238 14.8269L14.5001 14.693V13.5H20.7501L20.8518 13.4932C21.2179 13.4435 21.5001 13.1297 21.5001 12.75ZM14.6207 11.9418C14.9659 10.8174 16.0125 10 17.2501 10L17.4176 10.005C18.5813 10.0749 19.5499 10.8685 19.8794 11.9418L19.8951 12H14.6041L14.6207 11.9418ZM19.5001 5.75C19.5001 5.33579 19.1643 5 18.7501 5H15.7501L15.6483 5.00685C15.2822 5.05651 15.0001 5.3703 15.0001 5.75C15.0001 6.16421 15.3358 6.5 15.7501 6.5H18.7501L18.8518 6.49315C19.2179 6.44349 19.5001 6.1297 19.5001 5.75Z" fill="#212121"/>
</svg>
