<svg width="13" height="20" viewBox="0 0 13 20" fill="none" xmlns="http://www.w3.org/2000/svg">
<path fill-rule="evenodd" clip-rule="evenodd" d="M11.7501 0C12.1298 0 12.4436 0.282154 12.4932 0.648229L12.5001 0.75V4.75C12.5001 5.1297 12.2179 5.44349 11.8518 5.49315L11.7501 5.5H8.75006C8.63171 5.5 8.53257 5.58223 8.50666 5.69268L8.50006 5.75V7H11.7501C12.2055 7 12.5477 7.39944 12.4951 7.83756L12.4777 7.9319L11.4777 11.9319C11.4035 12.2287 11.1582 12.4467 10.8629 12.4915L10.7501 12.5H8.50006V18.75C8.50006 19.1297 8.21791 19.4435 7.85183 19.4932L7.75006 19.5H3.75006C3.37037 19.5 3.05657 19.2178 3.00691 18.8518L3.00006 18.75V12.5H0.750061C0.370365 12.5 0.0565701 12.2178 0.00690765 11.8518L6.10352e-05 11.75L6.10352e-05 7.75C6.10352e-05 7.3703 0.282215 7.05651 0.64829 7.00685L0.750061 7H3.00006V5.75C3.00006 2.64821 5.45608 0.120063 8.52951 0.00415208L8.75006 0L11.7501 0ZM11.0001 1.5H8.75006C6.47189 1.5 4.61237 3.29251 4.50496 5.54408L4.50006 5.75V7.75C4.50006 8.1297 4.21791 8.44349 3.85183 8.49315L3.75006 8.5H1.50006V11H3.75006C4.12976 11 4.44355 11.2822 4.49321 11.6482L4.50006 11.75V18H7.00006V11.75C7.00006 11.3703 7.28222 11.0565 7.64829 11.0068L7.75006 11H10.1641L10.7891 8.5H7.75006C7.37037 8.5 7.05657 8.21785 7.00691 7.85177L7.00006 7.75V5.75C7.00006 4.83183 7.70717 4.07881 8.60653 4.0058L8.75006 4H11.0001V1.5Z" fill="#212121"/>
</svg>
