<svg width="24" height="24" viewBox="0 0 24 24" fill="none" xmlns="http://www.w3.org/2000/svg">
<path fill-rule="evenodd" clip-rule="evenodd" d="M7.75006 3H15.7501C18.3734 3 20.5001 5.12665 20.5001 7.75V15.75C20.5001 18.3734 18.3734 20.5 15.7501 20.5H7.75006C5.12671 20.5 3.00006 18.3734 3.00006 15.75V7.75C3.00006 5.12665 5.12671 3 7.75006 3ZM15.7501 4.5H7.75006C5.95514 4.5 4.50006 5.95507 4.50006 7.75V15.75C4.50006 17.5449 5.95514 19 7.75006 19H15.7501C17.545 19 19.0001 17.5449 19.0001 15.75V7.75C19.0001 5.95507 17.545 4.5 15.7501 4.5ZM8.00006 11.75C8.00006 9.67893 9.67899 8 11.7501 8C13.8211 8 15.5001 9.67893 15.5001 11.75C15.5001 13.8211 13.8211 15.5 11.7501 15.5C9.67899 15.5 8.00006 13.8211 8.00006 11.75ZM14.0001 11.75C14.0001 10.5074 12.9927 9.5 11.7501 9.5C10.5074 9.5 9.50006 10.5074 9.50006 11.75C9.50006 12.9926 10.5074 14 11.7501 14C12.9927 14 14.0001 12.9926 14.0001 11.75ZM16.9932 7.14823C16.9436 6.78215 16.6298 6.5 16.2501 6.5C15.8358 6.5 15.5001 6.83579 15.5001 7.251L15.5069 7.35277C15.5566 7.71885 15.8704 8.001 16.2501 8.001C16.6643 8.001 17.0001 7.66521 17.0001 7.25L16.9932 7.14823Z" fill="#212121"/>
</svg>
