<svg width="19" height="19" viewBox="0 0 19 19" fill="none" xmlns="http://www.w3.org/2000/svg">
<path fill-rule="evenodd" clip-rule="evenodd" d="M2.64058 13.719C4.0989 13.719 5.2811 14.9012 5.2811 16.3595C5.2811 17.8178 4.0989 19 2.64058 19C1.18226 19 6.10352e-05 17.8178 6.10352e-05 16.3595C6.10352e-05 14.9012 1.18226 13.719 2.64058 13.719ZM16.3595 13.719C17.8179 13.719 19.0001 14.9012 19.0001 16.3595C19.0001 17.8178 17.8179 19 16.3595 19C14.9012 19 13.719 17.8178 13.719 16.3595C13.719 14.9012 14.9012 13.719 16.3595 13.719ZM2.64058 6.85948C4.0989 6.85948 5.2811 8.04168 5.2811 9.5C5.2811 10.9583 4.0989 12.1405 2.64058 12.1405C1.18226 12.1405 6.10352e-05 10.9583 6.10352e-05 9.5C6.10352e-05 8.04168 1.18226 6.85948 2.64058 6.85948ZM9.50006 6.85948C10.9584 6.85948 12.1406 8.04168 12.1406 9.5C12.1406 10.9583 10.9584 12.1405 9.50006 12.1405C8.04174 12.1405 6.85954 10.9583 6.85954 9.5C6.85954 8.04168 8.04174 6.85948 9.50006 6.85948ZM2.64058 0C4.0989 0 5.2811 1.1822 5.2811 2.64052C5.2811 4.09884 4.0989 5.28104 2.64058 5.28104C1.18226 5.28104 6.10352e-05 4.09884 6.10352e-05 2.64052C6.10352e-05 1.1822 1.18226 0 2.64058 0ZM16.3595 0C17.8179 0 19.0001 1.1822 19.0001 2.64052C19.0001 4.09884 17.8179 5.28104 16.3595 5.28104C14.9012 5.28104 13.719 4.09884 13.719 2.64052C13.719 1.1822 14.9012 0 16.3595 0ZM9.50006 0C10.9584 0 12.1406 1.1822 12.1406 2.64052C12.1406 4.09884 10.9584 5.28104 9.50006 5.28104C8.04174 5.28104 6.85954 4.09884 6.85954 2.64052C6.85954 1.1822 8.04174 0 9.50006 0Z" fill="#212121"/>
</svg>
