<svg width="24" height="24" viewBox="0 0 24 24" fill="none" xmlns="http://www.w3.org/2000/svg">
<path fill-rule="evenodd" clip-rule="evenodd" d="M20.6777 8.37134L20.6825 7.8806L20.6874 7.9466C20.6894 7.95938 20.6918 7.96189 20.6937 7.96116L21.0488 7.2535L21.5021 6.36816L21.7854 5.79306L21.9105 5.52807C22.1496 5.01271 22.3227 4.58406 22.4297 4.22395L22.4525 4.1386L22.4591 4.12488C22.6188 3.68057 22.3295 3.1126 21.7505 3.1126L21.6393 3.12085L21.5325 3.14492L21.4215 3.18911C21.2329 3.28155 21.0385 3.36574 20.8323 3.44497L20.3938 3.60069L20.0187 3.71771L19.5405 3.85365L18.9685 4.0106L18.8465 3.90388C17.5937 2.87 15.8887 2.74663 14.1085 3.41322L13.9002 3.4965C12.1877 4.2254 11.0643 5.82001 11.0037 7.64306L11.0015 8.0906L10.8205 8.08134C8.21881 7.89 5.9164 6.58804 4.36137 4.41601C4.04188 3.96975 3.36701 4.00652 3.09789 4.48484L3.00552 4.66082L2.95777 4.75767C2.25806 6.2042 1.79667 7.96896 1.96601 9.82822L1.99455 10.0927C2.27941 12.3723 3.54183 14.3243 5.94066 15.7662L6.20654 15.9206L6.03369 16.0175C4.56326 16.8103 3.23696 17.1598 1.78071 17.1032C0.988459 17.0723 0.69645 18.1317 1.39261 18.5111C4.93568 20.4423 8.73178 21.037 11.9946 20.0899C15.9734 18.934 18.9998 15.9556 20.1586 11.8304C20.4701 10.6998 20.644 9.53921 20.6777 8.37134ZM18.1902 5.35002C18.3832 5.56779 18.6847 5.65429 18.9638 5.57193L20.1342 5.24533L20.4235 5.1616L20.2461 5.52645L19.417 7.15166L19.3161 7.36083C19.2189 7.57216 19.1893 7.68145 19.1843 7.81938L19.1836 7.88062C19.1902 9.0779 19.032 10.2723 18.7135 11.4284C17.6978 15.0441 15.0638 17.6362 11.5763 18.6494L11.2683 18.733C9.32329 19.225 7.14598 19.1043 4.95514 18.4135L4.51454 18.2666L4.76696 18.1921C5.87088 17.8421 6.97493 17.2711 8.16734 16.4768C8.66137 16.1477 8.59542 15.4023 8.05126 15.1651C5.05082 13.857 3.66801 11.9779 3.45983 9.69216L3.43786 9.36254C3.39586 8.37531 3.56563 7.40568 3.85569 6.527L3.94254 6.2776L3.97855 6.31957C5.9789 8.49359 8.74684 9.6797 11.7707 9.60235C12.1773 9.59195 12.5015 9.25934 12.5015 8.8526V7.8526C12.483 6.49684 13.3197 5.31033 14.6345 4.81797C16.1153 4.26349 17.3767 4.43196 18.1902 5.35002Z" fill="#212121"/>
</svg>
